<?xml version="1.0" encoding="UTF-8"?>
<!DOCTYPE svg PUBLIC "-//W3C//DTD SVG 1.0//EN" "http://www.w3.org/TR/2001/REC-SVG-20010904/DTD/svg10.dtd">
<!-- Creator: CorelDRAW X8 -->
<svg xmlns="http://www.w3.org/2000/svg" xmlns:xlink="http://www.w3.org/1999/xlink" xml:space="preserve" width="118.533mm" height="82.9732mm" version="1.0" style="shape-rendering:geometricPrecision; text-rendering:geometricPrecision; image-rendering:optimizeQuality; fill-rule:evenodd; clip-rule:evenodd" viewBox="0 0 11853 8297">
 <defs>
  <style type="text/css">
   <![CDATA[
    .fil19 {fill:#FEFEFE}
    .fil3 {fill:#FDE5A9}
    .fil21 {fill:#FBD4A2}
    .fil23 {fill:#F7C199}
    .fil25 {fill:#F8B847}
    .fil28 {fill:#F6B585}
    .fil8 {fill:#F29956}
    .fil10 {fill:#E86587}
    .fil7 {fill:#F1A54C}
    .fil11 {fill:#EED14B}
    .fil26 {fill:#C97D2E}
    .fil4 {fill:#AB2933}
    .fil20 {fill:#AD73AE}
    .fil24 {fill:#AC5133}
    .fil9 {fill:#A3CA28}
    .fil14 {fill:#97D1E3}
    .fil12 {fill:#92569D}
    .fil15 {fill:#862F59}
    .fil29 {fill:#5B2734}
    .fil13 {fill:#684388}
    .fil1 {fill:#0E9966}
    .fil22 {fill:#0C8C9C}
    .fil18 {fill:#464798}
    .fil17 {fill:#1C707B}
    .fil5 {fill:#222428}
    .fil30 {fill:#28436F}
    .fil16 {fill:#252D3F}
    .fil6 {fill:#009966}
    .fil27 {fill:#D8E5EE}
    .fil0 {fill:white}
    .fil31 {fill:#AB2933;fill-rule:nonzero}
    .fil32 {fill:#92569D;fill-rule:nonzero}
    .fil2 {fill:#0E9966;fill-rule:nonzero}
   ]]>
  </style>
 </defs>
 <g id="Layer_x0020_1">
  <metadata id="CorelCorpID_0Corel-Layer"/>
  <polygon class="fil1" points="6719,725 8818,725 8818,1374 9738,1374 9364,725 11699,725 11699,2983 6719,2983 "/>
  <polygon class="fil2" points="6483,5451 5273,6323 442,6323 442,6273 5257,6273 6454,5411 "/>
  <polygon class="fil3" points="6703,7227 6497,7590 6825,8159 7478,8159 7597,7952 7940,8150 9033,8150 9213,7476 8975,6804 "/>
  <polygon class="fil1" points="6157,3653 6168,3241 308,3241 308,3653 "/>
  <polygon class="fil4" points="7079,2983 7222,725 308,725 308,2983 "/>
  <g id="_53743345936">
   <polygon class="fil5" points="5649,6586 6347,7310 6932,8055 6671,7496 6918,7369 6461,6152 "/>
   <path class="fil6" d="M6079 7596l-312 -162 -288 166 -585 478 907 0 278 -482zm145 51l-106 -66 -187 481 214 57 79 -472z"/>
   <polygon class="fil4" points="9405,5407 9736,5407 10483,6363 10444,6558 10548,6538 11151,7229 11737,7412 11737,7978 10918,7160 9530,7532 9065,7996 8293,7789 8974,7345 8974,6996 "/>
   <polygon class="fil5" points="8974,7345 8974,6996 9331,5678 9473,5512 9734,5512 10269,6524 "/>
   <polygon class="fil4" points="6641,6210 6416,5564 5508,6252 5082,7274 6608,7879 6225,6451 "/>
   <polygon class="fil7" points="6292,5518 6578,7290 7224,7733 7673,7375 8118,7375 7585,5988 "/>
   <polygon class="fil3" points="6381,6073 6578,7290 6800,7437 7037,7301 6824,6509 "/>
   <polygon class="fil8" points="9628,5758 9749,6773 9440,6989 9172,5930 "/>
   <polygon class="fil3" points="9383,4150 9578,4322 9628,5758 9247,5977 8918,5345 "/>
   <polygon class="fil8" points="9005,5455 9308,4837 9417,5025 9163,5555 "/>
   <polygon class="fil9" points="9548,4295 9578,4322 9588,4624 9222,4624 9222,4563 9326,4295 "/>
   <polygon class="fil10" points="9362,4930 9128,5461 9152,5479 9386,5018 9473,5018 9473,5868 9379,6031 9440,6092 9440,6989 7992,7745 7371,6615 8267,5357 "/>
   <polygon class="fil11" points="9473,5847 9473,5868 9379,6031 9440,6092 9440,6989 8975,7232 8975,6134 "/>
   <polygon class="fil12" points="7790,7377 7371,6615 7645,6231 8787,5925 8961,5971 8664,6589 8062,6750 8333,6907 8333,7377 "/>
   <polygon class="fil13" points="6292,5518 6953,6230 7065,6230 7048,6292 7371,6615 8757,6056 9214,5492 8359,5942 8268,5942 7932,5748 6292,5197 "/>
   <polygon class="fil8" points="9158,861 9412,861 9674,1291 9666,1373 9723,1383 9812,1553 9812,1679 9679,1811 8983,1001 "/>
   <polygon class="fil14" points="8893,765 9034,542 9237,659 9169,824 9285,713 9328,719 8993,1027 "/>
   <polygon class="fil15" points="8891,611 9104,823 9008,990 9275,760 9413,840 9239,840 9075,986 9233,910 9573,1250 9573,1340 9551,1379 9626,1422 9626,1917 9759,2147 9636,2180 8382,1317 "/>
   <polygon class="fil16" points="9009,1748 8584,1456 9051,1273 9051,1591 "/>
   <polygon class="fil16" points="9058,1867 9147,1535 9433,1700 9660,2094 9505,1515 9584,1470 9666,1777 9666,1651 9836,1606 10033,2147 10033,2492 9975,2525 10046,2566 9998,3154 9813,3394 9393,3290 9046,2123 "/>
   <polygon class="fil17" points="9474,2964 9690,3179 9690,3325 9773,3181 10020,3323 9504,4398 9432,4398 9226,3964 "/>
   <polygon class="fil10" points="8887,2259 8921,1581 9308,1876 9172,1954 9311,2035 9289,2057 9125,1962 9233,2068 9201,2188 9526,2672 9124,2476 "/>
   <polygon class="fil9" points="9870,3316 9675,3581 9601,3859 9557,3871 9604,3918 9558,4053 9714,4120 10092,3962 10109,3330 "/>
   <polygon class="fil3" points="9841,4067 10092,3962 10100,3671 9841,3671 "/>
   <polygon class="fil11" points="10169,3205 9932,3122 9628,3558 9745,3674 9860,3359 "/>
   <polygon class="fil12" points="10152,3203 10111,3210 9860,3359 10059,3412 10059,3992 10163,3896 10228,3322 "/>
   <polygon class="fil10" points="10059,3671 10059,3992 10163,3896 10188,3671 "/>
   <polygon class="fil9" points="8485,767 8949,765 8949,476 8709,360 8709,612 8599,295 8214,192 8293,486 8293,310 8485,310 "/>
   <polygon class="fil14" points="8094,388 7576,434 7413,272 7777,208 7917,288 7853,178 7973,178 "/>
   <polygon class="fil5" points="6816,702 6425,790 5996,1296 6050,1326 5948,1354 5685,1950 5693,2267 5732,2306 5693,2328 5753,3087 5871,4273 5967,4341 7813,1219 7296,625 "/>
   <polygon class="fil16" points="7316,1205 6749,873 6415,1066 7139,1222 "/>
   <polygon class="fil18" points="5768,3241 5871,4273 5967,4341 6567,3327 6567,3241 "/>
   <polygon class="fil16" points="7779,467 7367,319 6858,481 6981,552 6771,552 6539,725 7222,725 7287,969 7351,1006 7323,1035 7400,1324 8000,1324 7988,581 "/>
   <polygon class="fil18" points="7611,1324 7841,1324 7751,988 7611,1069 "/>
   <polygon class="fil14" points="8901,2118 9526,2672 9526,3064 9569,3106 9519,3156 9519,3642 9383,4150 9472,4373 9362,4930 9075,4930 8682,2474 "/>
   <polygon class="fil8" points="9514,3660 9383,4150 9472,4373 9362,4930 9075,4930 8976,4315 8976,3660 "/>
   <polygon class="fil19" points="8911,2512 9085,2458 9467,3165 9467,3661 9138,3749 "/>
   <polygon class="fil9" points="5899,4046 5899,3801 5908,3769 5873,3709 5873,3363 5805,3209 5593,3209 5593,3535 5720,4011 "/>
   <polygon class="fil11" points="5562,3550 5586,3328 5767,3328 5855,3554 5758,3723 5758,4014 5682,4009 "/>
   <polygon class="fil10" points="5788,3277 5670,3277 5617,3560 5617,3789 5508,3312 5560,3143 5671,3143 "/>
   <polygon class="fil19" points="5994,4362 5863,4362 5616,4003 5500,3313 5566,3072 5747,3072 5863,3346 5633,3168 5565,3168 5525,3319 5706,3975 5899,3975 5899,4257 5975,4315 "/>
   <polygon class="fil20" points="8485,4510 9073,3660 9468,3660 9214,4605 9214,5057 8485,5057 "/>
   <polygon class="fil10" points="8590,4366 9006,4782 8876,5007 9274,4777 9362,4930 8281,5942 8100,5942 8007,5988 7261,5988 7204,5955 7162,6028 7142,6028 7142,5989 7105,6011 6890,6011 6762,5920 6642,5603 "/>
   <polygon class="fil8" points="7814,5613 8328,5248 8843,5248 8248,5864 "/>
   <polygon class="fil8" points="6722,5814 6662,5656 8099,5656 8176,5921 7890,5921 7856,5861 7856,5950 7827,5950 7786,5881 7757,5932 7260,5932 7128,5856 7048,5901 "/>
   <polygon class="fil12" points="8590,4366 8853,4629 8853,4985 8116,5722 7948,5626 8285,4559 "/>
   <polygon class="fil20" points="8590,5248 8116,5722 7948,5626 8067,5248 "/>
   <polygon class="fil21" points="8585,4791 8099,5656 8116,5722 7998,5715 6647,5697 6325,4767 8541,4299 "/>
   <polygon class="fil11" points="8585,4791 8328,5248 7294,5248 7294,4562 7872,4440 8553,4440 "/>
   <polygon class="fil0" points="6799,4512 6510,4790 6941,5614 7866,5614 7013,5015 7576,5015 "/>
   <polygon class="fil7" points="7190,4997 7307,5084 7959,5084 8113,4857 8331,4775 8299,4645 "/>
   <polygon class="fil17" points="7880,1376 8533,1475 8616,1401 8523,1353 8949,1206 8949,668 8693,413 8693,752 8579,325 8366,268 8475,673 8454,687 8353,310 7452,310 7880,739 "/>
   <polygon class="fil22" points="8246,310 8042,310 8198,664 8311,551 "/>
   <polygon class="fil10" points="6509,1434 6431,1329 6771,1112 7025,1180 7056,1127 7182,1127 7341,1219 7813,1219 7855,1376 "/>
   <polygon class="fil10" points="6361,2453 6185,2110 5901,2394 5938,2993 6024,3079 "/>
   <polygon class="fil11" points="5950,4290 5950,5082 6762,5920 6457,4549 5950,4257 "/>
   <polygon class="fil3" points="6938,4644 6536,4876 5950,4290 5950,3265 6036,3179 6986,3179 8154,4347 7832,4684 "/>
   <polygon class="fil9" points="9226,2973 9226,3964 8713,4390 8585,4791 8428,4510 8099,3965 8139,3051 "/>
   <polygon class="fil23" points="7431,3891 7382,4075 7104,4153 7089,4208 6967,4175 6678,4359 6985,4359 7347,4209 7536,4259 7707,4213 8054,4213 "/>
   <polygon class="fil21" points="7200,4126 7104,4153 7089,4208 6967,4175 6678,4359 6985,4359 7235,4256 "/>
   <polygon class="fil16" points="8380,1483 7945,1406 7945,926 8359,926 8269,1262 8449,951 8449,800 8493,800 8493,1271 8734,1029 8938,1234 "/>
   <polygon class="fil11" points="7217,3935 7362,3935 7971,4219 8015,4384 7658,4384 8241,4718 8539,4546 8120,3837 7297,3833 "/>
   <path class="fil0" d="M7459 4402l169 38 143 -142 -189 -51 -46 12 -189 -50 -315 118 110 63 317 0 0 12zm-505 -29l62 -31 70 50 -68 18 -64 -37z"/>
   <polygon class="fil7" points="8278,4697 8539,4546 8391,4296 8102,4463 7853,4463 "/>
   <polygon class="fil10" points="7217,3935 7362,3935 7595,4044 8051,4044 8148,3886 8134,3861 7969,3836 7468,3834 7240,3906 "/>
   <polygon class="fil10" points="8223,4708 8241,4718 8472,4585 8384,4434 8284,4533 8098,4533 "/>
   <polygon class="fil11" points="6162,2686 5954,3042 5954,3238 6728,3238 7242,3056 7242,2870 "/>
   <polygon class="fil7" points="6469,3057 6430,2732 6186,2976 6312,3102 "/>
   <polygon class="fil3" points="6744,2906 7032,2906 7032,3023 6852,3023 6954,2958 6744,2958 "/>
   <polygon class="fil10" points="6893,4641 6809,4679 7228,5028 7867,5035 8221,4727 "/>
   <path class="fil24" d="M7743 5033l124 2 354 -308 -212 -14 0 134 -266 186zm-860 -388l-74 34 150 126 145 -135 -221 -25z"/>
   <polygon class="fil25" points="6981,4823 7207,5011 7560,5000 7739,4820 7932,4820 7964,4787 7284,4787 7119,4743 "/>
   <path class="fil3" d="M7030 4864l140 116 259 0 0 -116 -399 0zm456 56l-41 2 12 -63 63 0 -34 61z"/>
   <polygon class="fil9" points="7083,4707 7396,4761 7653,4734 8091,4734 8176,4593 7856,4440 7294,4440 6995,4570 "/>
   <polygon class="fil26" points="7963,4734 8035,4734 8121,4685 8130,4669 8065,4540 8065,4540 7963,4521 "/>
   <polygon class="fil27" points="7325,4695 7232,4695 7192,4619 7284,4558 7333,4587 7379,4536 7499,4536 7554,4576 7598,4532 7733,4532 7767,4592 7883,4561 7952,4623 7843,4727 7324,4742 "/>
   <polygon class="fil27" points="7159,4720 7118,4645 7164,4599 7198,4683 "/>
   <polygon class="fil9" points="8004,4734 8012,4734 8039,4688 7990,4637 7943,4718 "/>
   <path class="fil19" d="M7208 4651l105 -22 0 66 -81 0 -24 -44zm598 4l52 0 0 29 -52 0 0 -29zm-230 36l-9 -40 87 0 -23 40 -55 0zm-207 30l138 -2 30 -75 -168 -40 0 117z"/>
   <polygon class="fil15" points="8102,4715 8138,4655 8138,4575 7856,4440 7294,4440 7096,4526 7048,4565 7068,4685 7068,4685 7115,4712 7093,4572 7163,4554 7189,4561 7226,4516 7314,4507 7335,4529 7372,4483 7533,4483 7552,4524 7565,4524 7588,4486 7737,4486 7780,4540 7797,4540 7833,4503 7955,4550 7961,4572 7988,4556 8070,4604 8070,4734 "/>
   <polygon class="fil14" points="8854,3167 9046,3167 9108,3131 9226,3198 9226,2973 9184,2962 9223,2895 9168,2774 8797,3003 "/>
   <polygon class="fil3" points="8082,3897 8155,3897 8391,4299 8690,4299 9146,3537 8900,3200 8610,3272 8211,3157 8211,3140 8394,3189 8644,3189 8644,3089 8727,2945 8121,2757 7808,2938 7808,3658 "/>
   <path class="fil19" d="M8762 4179l311 -519 -778 -449 -90 532 557 436zm-275 -1085l-34 -6 -12 43 46 12 0 -49zm-158 -43l-264 0 54 92 174 -46 119 26 24 -41 -107 -31z"/>
   <polygon class="fil10" points="7973,2982 8085,2982 8182,2840 8137,2814 "/>
   <polygon class="fil24" points="6353,2969 6459,2969 6654,2774 6569,2714 "/>
   <polygon class="fil11" points="7150,2944 7150,3035 7331,3035 7409,2769 7060,2769 7051,2841 "/>
   <polygon class="fil20" points="8645,2945 8645,3045 8436,3045 8385,3059 8316,3040 8287,3069 8634,3134 8755,3109 8854,3167 8957,3107 8839,2984 "/>
   <polygon class="fil8" points="8645,3045 8436,3045 8385,3059 8316,3040 8287,3069 8634,3134 8645,3132 "/>
   <polygon class="fil20" points="6609,2933 6609,2996 6631,2975 6744,3023 6856,3023 6811,3049 6620,3049 6595,3023 6437,3066 6396,2998 6549,2888 "/>
   <polygon class="fil8" points="6609,2996 6631,2975 6744,3023 6856,3023 6811,3049 6620,3049 6609,3038 "/>
   <polygon class="fil28" points="6194,2531 6112,2664 6434,2849 6586,2682 6768,2682 6891,2527 6527,2375 "/>
   <polygon class="fil20" points="6357,2805 6434,2849 6586,2682 6768,2682 6863,2562 6863,2516 6675,2437 6534,2411 6262,2522 6640,2522 "/>
   <polygon class="fil20" points="8725,2866 8864,3010 9035,3010 9170,2820 9029,2623 "/>
   <polygon class="fil10" points="8421,2812 8725,2866 8984,2866 9057,2595 8682,2474 8293,2588 "/>
   <polygon class="fil28" points="8652,2853 8725,2866 8984,2866 9053,2612 8652,2612 "/>
   <polygon class="fil10" points="7949,3050 7949,2931 7973,2931 7973,2557 7670,2557 7670,3080 "/>
   <polygon class="fil8" points="7949,3023 7949,2965 7758,2774 7758,2557 7726,2557 7670,2654 7670,3037 7711,3066 "/>
   <polygon class="fil7" points="7214,2608 7254,2794 7392,2794 7442,2608 "/>
   <polygon class="fil13" points="7087,2746 7150,2793 7078,2834 6985,2746 "/>
   <polygon class="fil17" points="6873,2510 6751,2646 6561,2646 6309,2898 6309,2969 6569,2714 7051,2714 7193,2855 7293,2788 7293,2582 7296,2582 7296,2567 "/>
   <polygon class="fil9" points="7949,3530 7949,3008 7503,3008 6946,3800 7096,3935 7709,3859 8024,3897 8054,3716 "/>
   <polygon class="fil11" points="7070,3623 6946,3800 6985,3835 7156,3835 7156,3623 "/>
   <polygon class="fil26" points="8119,3897 8119,3777 7949,3530 7867,3612 8039,3711 7960,3848 7746,3725 7661,3811 7151,3811 7218,3881 7499,3913 7825,3908 7996,3941 "/>
   <polygon class="fil15" points="7876,3826 7418,3829 7451,3888 7412,3895 7310,3830 7284,3830 7084,3884 7108,3986 7342,3925 7435,3925 7496,3995 7657,3995 7730,3921 8004,4000 8119,3897 7980,3897 "/>
   <polygon class="fil29" points="7771,3851 7647,3866 7607,3919 7771,3919 "/>
   <polygon class="fil11" points="7129,3620 7278,3769 7661,3769 7842,3575 7711,3445 7711,2800 7461,2800 "/>
   <polygon class="fil17" points="8892,2968 8864,3010 8527,2767 8672,2755 "/>
   <polygon class="fil18" points="8664,2866 8544,2779 8544,2765 8672,2755 8786,2866 "/>
   <polygon class="fil9" points="7048,2436 7214,2618 7537,2641 7665,2442 7135,2349 "/>
   <polygon class="fil11" points="7398,2631 7537,2641 7665,2442 7398,2395 "/>
   <polygon class="fil7" points="6959,1383 6400,1383 6156,1719 6185,1826 6256,1807 6140,2054 6172,2086 6282,1977 6318,1977 6138,2157 6138,2486 6237,2512 6796,2337 "/>
   <polygon class="fil9" points="8448,1379 8599,1327 9089,1713 9014,2082 9084,2101 9007,2145 9007,2528 8357,2421 "/>
   <polygon class="fil11" points="7656,1317 8465,1317 8816,1660 8663,2233 8663,2498 8229,2498 8055,2600 7539,2600 7861,2278 "/>
   <path class="fil3" d="M6648 2366l-263 -152 0 -625 534 -396 296 70 124 0 32 -32 149 86 323 0 632 166 -178 501 -135 0 53 53 189 0 -74 278 -271 0 -320 289 -170 951 0 143 -349 0 0 -162 -166 218 17 72 0 0 42 158 -584 157 0 0 13 18 -79 -115 0 0 -27 -39 0 0 -279 -406 307 -511 859 -84 96 -422 187 -108 -450 -91 -77 44 -431 -61zm868 1562l142 116 -142 -116 0 0z"/>
   <polygon class="fil19" points="7704,2800 7595,3413 7461,3413 7461,2800 "/>
   <path class="fil19" d="M6477 2267l-92 -53 0 -625 277 -206 469 0 141 142 82 -82 377 0 -130 487 -709 -190 0 353 651 0 -1 174 -1065 0zm1158 -174l192 0 175 174 -321 0 -46 -174z"/>
   <path class="fil19" d="M6595 4123l-66 18 -372 -542 215 -358 732 0 -509 882zm989 -651l-15 83 0 143 -172 0 0 -226 187 0z"/>
   <polygon class="fil12" points="8031,2493 8514,2573 8356,2615 8441,2761 8111,2813 7967,2956 7899,2691 "/>
   <polygon class="fil24" points="6890,4693 6788,4676 6776,4629 7332,4361 7582,4384 7822,4368 8275,4557 8310,4685 8260,4711 8090,4588 7825,4479 7291,4479 7077,4566 "/>
   <path class="fil15" d="M6890 4693l-102 -17 -12 -47 347 -167 87 50 -133 54 -187 127zm1387 -127l33 119 -50 26 -142 -103 159 -42z"/>
   <polygon class="fil23" points="7271,4390 7350,4347 7582,4384 7822,4368 8049,4463 7947,4463 7801,4394 7614,4394 7560,4408 7494,4390 "/>
   <polygon class="fil14" points="6867,2961 6944,2961 7041,2934 7150,2972 7166,2913 6936,2770 "/>
   <path class="fil19" d="M6867 2961l77 0 88 -24 0 -92 -123 0 -42 116zm230 -8l53 19 16 -58 -69 0 0 39z"/>
   <polygon class="fil9" points="6673,2749 6745,2961 6596,2961 6529,2876 "/>
   <polygon class="fil19" points="6705,2845 6745,2961 6609,2961 6609,2845 "/>
   <polygon class="fil9" points="8559,2800 8511,3003 8760,3003 8727,2906 "/>
   <polygon class="fil19" points="8538,2887 8511,3003 8645,3003 8645,2887 "/>
   <polygon class="fil14" points="8319,2807 8344,2995 8134,2963 8259,2791 "/>
   <polygon class="fil19" points="8330,2887 8344,2995 8242,2979 8242,2887 "/>
   <polygon class="fil5" points="8277,2836 8277,2912 8344,2995 8511,3003 8579,2915 8579,2823 8714,2925 8764,3037 8864,3010 8745,2888 8563,2769 8665,2769 8892,2968 8892,2935 8682,2743 8517,2707 8491,2722 8474,2696 8263,2696 7960,2931 7973,2982 8137,2829 8154,2840 8032,2995 8158,2973 8255,2836 "/>
   <polygon class="fil30" points="8395,2809 8299,2809 8299,2903 8353,2978 8498,2986 8555,2913 8486,2874 8455,2903 8374,2903 8374,2820 "/>
   <rect class="fil19" x="8373" y="2809" width="30.7987" height="30.7987"/>
   <polygon class="fil5" points="6645,2791 6645,2877 6716,2961 6867,2961 6946,2862 6946,2791 7150,2916 7150,2972 7211,2959 7179,2905 7020,2758 7079,2758 7193,2855 7193,2792 6990,2660 6660,2660 6648,2681 6598,2669 6305,2969 6370,2969 6575,2733 6611,2754 6392,2990 6401,3006 6548,2915 "/>
   <polygon class="fil30" points="6764,2777 6668,2777 6668,2870 6722,2945 6862,2947 6920,2878 6855,2842 6824,2871 6743,2871 6743,2788 "/>
   <rect class="fil19" x="6742" y="2777" width="30.7987" height="30.7987"/>
   <polygon class="fil5" points="6859,4689 7077,4566 7111,4698 7175,4698 7196,4669 7221,4699 7306,4699 7329,4680 7361,4709 7533,4709 7551,4683 7569,4712 7764,4712 7781,4678 7800,4698 7893,4698 7943,4663 7990,4711 8046,4711 8090,4673 8090,4588 8281,4703 8126,4765 7677,4765 7648,4782 7383,4782 7166,4731 "/>
   <polygon class="fil15" points="7079,4574 7104,4670 7052,4670 7004,4622 "/>
   <polygon class="fil15" points="8090,4672 8090,4613 8122,4613 8179,4672 "/>
   <path class="fil5" d="M7686 3876l-60 19 38 -52 221 0 45 45 -159 31 -85 -43zm-285 21l30 -6 -116 -70 -122 35 74 74 112 -44 22 11z"/>
   <polygon class="fil18" points="6574,2463 6922,2597 7293,2623 7293,2582 7159,2430 6811,2337 6606,2337 6580,2352 6449,2288 6161,2505 6063,2822 6080,2826 6245,2546 "/>
   <polygon class="fil16" points="6640,2489 6922,2597 7293,2623 7293,2582 7159,2430 7102,2414 7007,2469 6985,2431 6738,2365 6500,2429 "/>
   <polygon class="fil18" points="7960,2599 8102,2387 8586,2383 8670,2411 8761,2323 9040,2510 9187,2812 9170,2820 8964,2598 8718,2514 8413,2602 "/>
   <polygon class="fil16" points="7960,2599 8056,2457 8132,2413 8450,2498 8788,2498 8723,2515 8718,2514 8566,2558 8413,2602 "/>
   <rect class="fil10" x="8294" y="4063" width="54.4643" height="54.4643"/>
   <polygon class="fil23" points="7113,3984 7075,3835 6970,3835 6784,4016 6784,4097 "/>
   <polygon class="fil19" points="6692,4642 6527,4774 6474,4619 6637,4560 "/>
   <polygon class="fil19" points="8195,658 8164,664 8020,377 8081,316 "/>
   <polygon class="fil19" points="9467,4399 9725,4398 10181,3939 10249,3365 10127,3122 9932,3122 10161,3235 10209,3330 10118,3895 9726,4015 9704,4053 9525,4053 9575,4094 "/>
   <polygon class="fil11" points="9467,4399 9725,4398 10181,3939 10198,3795 10131,3813 10118,3895 10059,3913 10059,3932 9483,4398 9475,4377 "/>
   <polygon class="fil16" points="9687,1503 9702,1578 9799,1547 9747,1441 "/>
   <polygon class="fil16" points="9445,1399 9480,1470 9538,1434 9491,1352 "/>
   <polygon class="fil16" points="8243,785 8234,885 8348,885 8374,785 "/>
   <polygon class="fil1" points="10926,7247 9392,7747 10514,8048 11283,7604 "/>
  </g>
  <path class="fil31" d="M609 5754l0 225 113 0c15,0 30,-3 43,-9 14,-6 26,-14 36,-24 10,-10 18,-22 24,-36 6,-14 9,-28 9,-44 0,-15 -3,-30 -9,-44 -6,-13 -14,-25 -24,-35 -10,-11 -22,-19 -36,-25 -13,-5 -28,-8 -43,-8l-113 0zm0 449l-112 0 0 -562 225 0c20,0 40,3 59,8 19,5 37,13 54,23 16,10 32,21 45,35 14,14 26,29 36,46 9,17 17,35 22,54 6,19 8,38 8,59 0,20 -2,38 -7,57 -5,18 -12,35 -21,52 -9,16 -20,31 -33,45 -13,14 -28,26 -44,36l63 147 -120 0 -49 -113 -126 1 0 112z"/>
    <path id="r31_1" class="fil31" d="M1571 5925c0,26 -3,52 -10,77 -7,24 -17,47 -30,69 -12,22 -27,41 -45,59 -18,18 -37,33 -59,46 -21,12 -44,22 -69,29 -25,7 -51,11 -78,11 -26,0 -52,-4 -77,-11 -24,-7 -47,-17 -69,-29 -22,-13 -41,-28 -59,-46 -18,-18 -33,-37 -46,-59 -12,-22 -22,-45 -29,-69 -7,-25 -11,-51 -11,-77 0,-27 4,-53 11,-78 7,-25 17,-48 29,-69 13,-22 28,-41 46,-59 18,-18 37,-33 59,-45 22,-13 45,-23 69,-30 25,-7 51,-10 77,-10 27,0 53,3 78,10 25,7 48,17 69,30 22,12 41,27 59,45 18,18 33,37 45,59 13,21 23,44 30,69 7,25 10,51 10,78zm-112 0c0,-25 -4,-48 -14,-70 -9,-22 -22,-41 -38,-57 -16,-16 -35,-29 -57,-38 -22,-10 -45,-14 -70,-14 -24,0 -48,4 -69,14 -22,9 -41,22 -57,38 -16,16 -29,35 -39,57 -9,22 -14,45 -14,70 0,24 5,47 14,69 10,21 23,40 39,56 16,17 35,29 57,39 21,9 45,14 69,14 25,0 48,-5 70,-14 22,-10 41,-22 57,-39 16,-16 29,-35 38,-56 10,-22 14,-45 14,-69z"/>
    <polygon id="r31_2" class="fil31" points="2095,6203 1974,6203 1757,5833 1757,6203 1645,6203 1645,5641 1765,5641 1982,6012 1982,5641 2095,5641 "/>
    <path id="r31_3" class="fil31" d="M2530 5979l0 -113c0,-15 -3,-30 -9,-44 -6,-13 -14,-25 -24,-35 -10,-11 -22,-19 -36,-25 -14,-5 -28,-8 -44,-8 -15,0 -30,3 -43,8 -14,6 -26,14 -36,25 -10,10 -18,22 -24,35 -6,14 -9,29 -9,44l0 113 225 0zm112 224l-112 0 0 -112 -225 0 0 112 -112 0 0 -337c0,-31 6,-60 17,-87 12,-28 28,-52 48,-72 21,-20 44,-36 72,-48 27,-12 56,-18 87,-18 32,0 61,6 88,18 27,12 51,28 72,48 20,20 36,44 48,72 12,27 17,56 17,87l0 337z"/>
    <polygon id="r31_4" class="fil31" points="3134,6203 2740,6203 2740,5641 2853,5641 2853,6091 3134,6091 "/>
    <path id="r31_5" class="fil31" d="M3643 5922c0,26 -3,51 -10,75 -7,24 -16,46 -28,67 -13,21 -27,40 -44,57 -17,17 -36,32 -57,44 -21,12 -44,22 -68,28 -23,7 -48,10 -74,10l-170 0 0 -562 170 0c26,0 51,3 74,10 24,7 47,16 68,28 21,13 40,28 57,45 17,17 31,36 44,56 12,21 21,44 28,67 7,24 10,49 10,75zm-113 0c0,-23 -4,-45 -13,-65 -9,-21 -20,-39 -36,-54 -15,-15 -33,-27 -54,-36 -20,-9 -42,-13 -65,-13l-56 0 0 337 56 0c23,0 45,-5 65,-13 21,-9 39,-21 54,-36 16,-16 27,-34 36,-54 9,-21 13,-43 13,-66z"/>
    <path id="r31_6" class="fil31" d="M4268 5925c0,26 -3,52 -10,77 -7,24 -17,47 -29,69 -13,22 -28,41 -46,59 -17,18 -37,33 -58,46 -22,12 -45,22 -70,29 -25,7 -50,11 -77,11 -27,0 -52,-4 -77,-11 -25,-7 -48,-17 -70,-29 -21,-13 -41,-28 -59,-46 -17,-18 -33,-37 -45,-59 -13,-22 -23,-45 -30,-69 -7,-25 -10,-51 -10,-77 0,-27 3,-53 10,-78 7,-25 17,-48 30,-69 12,-22 28,-41 45,-59 18,-18 38,-33 59,-45 22,-13 45,-23 70,-30 25,-7 50,-10 77,-10 27,0 52,3 77,10 25,7 48,17 70,30 21,12 41,27 58,45 18,18 33,37 46,59 12,21 22,44 29,69 7,25 10,51 10,78zm-111 0c0,-25 -5,-48 -14,-70 -10,-22 -23,-41 -39,-57 -16,-16 -35,-29 -57,-38 -21,-10 -44,-14 -69,-14 -25,0 -48,4 -70,14 -22,9 -41,22 -57,38 -16,16 -29,35 -38,57 -10,22 -14,45 -14,70 0,24 4,47 14,69 9,21 22,40 38,56 16,17 35,29 57,39 22,9 45,14 70,14 25,0 48,-5 69,-14 22,-10 41,-22 57,-39 16,-16 29,-35 39,-56 9,-22 14,-45 14,-69z"/>
  <path class="fil32" d="M657 5517c-10,9 -22,16 -35,20 -13,5 -26,8 -40,8 -11,0 -21,-2 -31,-4 -10,-3 -19,-7 -27,-12 -9,-5 -17,-11 -24,-18 -7,-8 -13,-15 -18,-24 -5,-9 -9,-18 -12,-28 -3,-10 -4,-20 -4,-30 0,-11 1,-21 4,-31 3,-10 7,-19 12,-28 5,-9 11,-16 18,-24 7,-7 15,-13 24,-18 8,-5 17,-9 27,-12 10,-2 20,-4 31,-4 14,0 27,3 40,7 13,5 25,12 35,21l-23 39c-7,-7 -15,-12 -24,-16 -9,-4 -18,-6 -28,-6 -10,0 -19,2 -28,6 -8,4 -16,9 -22,15 -7,6 -12,14 -16,23 -4,8 -5,18 -5,28 0,9 1,19 5,27 4,9 9,16 16,23 6,6 14,11 22,15 9,4 18,6 28,6 10,0 19,-2 28,-6 9,-4 17,-9 24,-16l23 39z"/>
    <path id="r32_1" class="fil32" d="M818 5360l0 90 45 0c6,0 12,-1 17,-3 6,-3 10,-6 14,-10 4,-4 8,-9 10,-14 2,-6 4,-12 4,-18 0,-6 -2,-12 -4,-17 -2,-6 -6,-10 -10,-15 -4,-4 -8,-7 -14,-9 -5,-2 -11,-4 -17,-4l-45 0zm0 180l-45 0 0 -225 90 0c8,0 16,1 24,4 7,2 14,5 21,9 7,4 13,8 18,14 6,5 10,11 14,18 4,7 7,14 9,21 2,8 3,16 3,24 0,8 0,16 -2,23 -2,7 -5,14 -9,21 -3,6 -8,12 -13,18 -5,5 -11,10 -17,14l24 59 -47 0 -20 -45 -50 0 0 45z"/>
    <polygon id="r32_2" class="fil32" points="1116,5540 1072,5540 1072,5315 1116,5315 "/>
    <path id="r32_3" class="fil32" d="M1235 5383c0,-10 1,-18 5,-26 4,-9 8,-16 14,-22 7,-6 14,-11 22,-14 8,-4 17,-6 26,-6l103 0 0 45 -103 0c-3,0 -6,1 -9,2 -3,1 -5,3 -7,5 -2,2 -4,4 -5,7 -1,3 -1,6 -1,9 0,3 0,6 1,9 1,2 3,5 5,7 2,2 4,3 7,5 3,1 6,1 9,1l45 0c9,0 18,2 26,6 8,3 15,8 22,14 6,6 10,13 14,21 3,9 5,17 5,27 0,9 -2,18 -5,26 -4,8 -8,15 -14,21 -7,6 -14,11 -22,14 -8,4 -17,6 -26,6l-100 0 0 -45 100 0c3,0 6,-1 9,-2 2,-1 5,-3 7,-5 2,-2 3,-4 5,-7 1,-2 1,-5 1,-8 0,-4 0,-7 -1,-9 -2,-3 -3,-5 -5,-7 -2,-2 -5,-4 -7,-5 -3,-1 -6,-2 -9,-2l-45 0c-9,0 -18,-2 -26,-5 -8,-4 -15,-9 -22,-15 -6,-6 -10,-13 -14,-21 -4,-8 -5,-17 -5,-26z"/>
    <polygon id="r32_4" class="fil32" points="1627,5540 1583,5540 1583,5360 1515,5360 1515,5315 1695,5315 1695,5360 1627,5360 "/>
    <polygon id="r32_5" class="fil32" points="1853,5540 1808,5540 1808,5315 1853,5315 "/>
    <path id="r32_6" class="fil32" d="M2117 5450l0 -45c0,-6 -2,-12 -4,-17 -2,-6 -6,-10 -10,-15 -4,-4 -8,-7 -14,-9 -5,-2 -11,-4 -17,-4 -7,0 -12,2 -18,4 -5,2 -10,5 -14,9 -4,5 -7,9 -10,15 -2,5 -3,11 -3,17l0 45 90 0zm44 90l-44 0 0 -45 -90 0 0 45 -45 0 0 -135c0,-12 2,-24 7,-35 5,-11 11,-20 19,-28 8,-8 18,-15 29,-20 11,-4 22,-7 35,-7 12,0 24,3 35,7 11,5 20,12 28,20 8,8 15,17 19,28 5,11 7,23 7,35l0 135z"/>
    <polygon id="r32_7" class="fil32" points="2470,5540 2422,5540 2335,5392 2335,5540 2290,5540 2290,5315 2338,5315 2425,5463 2425,5315 2470,5315 "/>
    <path id="r32_8" class="fil32" d="M2821 5429c0,10 -2,20 -4,30 -3,10 -7,19 -12,28 -5,9 -11,16 -18,24 -7,7 -15,13 -24,18 -8,5 -17,9 -27,12 -10,2 -20,4 -31,4 -11,0 -21,-2 -31,-4 -10,-3 -19,-7 -28,-12 -8,-5 -16,-11 -23,-18 -7,-8 -13,-15 -18,-24 -5,-9 -9,-18 -12,-28 -3,-10 -4,-20 -4,-30 0,-11 1,-21 4,-31 3,-10 7,-19 12,-28 5,-9 11,-16 18,-23 7,-8 15,-14 23,-19 9,-5 18,-9 28,-11 10,-3 20,-4 31,-4 11,0 21,1 31,4 10,2 19,6 27,11 9,5 17,11 24,19 7,7 13,14 18,23 5,9 9,18 12,28 2,10 4,20 4,31zm-45 0c0,-10 -2,-20 -5,-28 -4,-9 -9,-17 -16,-23 -6,-6 -14,-11 -22,-15 -9,-4 -18,-6 -28,-6 -10,0 -19,2 -28,6 -9,4 -16,9 -23,15 -6,6 -11,14 -15,23 -4,8 -6,18 -6,28 0,9 2,19 6,27 4,9 9,16 15,23 7,6 14,11 23,15 9,4 18,6 28,6 10,0 19,-2 28,-6 8,-4 16,-9 22,-15 7,-7 12,-14 16,-23 3,-8 5,-18 5,-27z"/>
  <rect class="fil14" x="660" y="7157" width="226" height="226"/>
  <polygon class="fil1" points="4811,4033 4802,4207 4636,4161 4652,4094 4716,4077 4734,4016 "/>
  <polygon class="fil19" points="10351,1585 10359,1759 10526,1714 10509,1646 10445,1630 10428,1569 "/>
  <polygon class="fil14" points="10449,5756 10458,5930 10624,5885 10608,5817 10544,5801 10526,5740 "/>
 </g>
</svg>